<svg width="32" height="32" viewBox="0 0 32 32" fill="none" xmlns="http://www.w3.org/2000/svg">
<path fill-rule="evenodd" clip-rule="evenodd" d="M15.25 8.75V10.5H13.1036C12.8809 10.5 12.7693 10.7693 12.9268 10.9267L15.8233 13.8232C15.9209 13.9208 16.0792 13.9208 16.1768 13.8232L19.0732 10.9267C19.2307 10.7693 19.1192 10.5 18.8965 10.5H16.75V8.75C16.75 8.33579 16.4142 8 16 8C15.5858 8 15.25 8.33579 15.25 8.75ZM15.25 22.75C15.25 23.1642 15.5858 23.5 16 23.5C16.4142 23.5 16.75 23.1642 16.75 22.75V21H18.8964C19.1192 21 19.2307 20.7307 19.0732 20.5732L16.1768 17.6768C16.0792 17.5792 15.9209 17.5792 15.8232 17.6768L12.9268 20.5732C12.7693 20.7307 12.8809 21 13.1036 21H15.25V22.75ZM10.75 15C10.3358 15 10 15.3358 10 15.75C10 16.1642 10.3358 16.5 10.75 16.5H21.25C21.6642 16.5 22 16.1642 22 15.75C22 15.3358 21.6642 15 21.25 15H10.75Z" fill="#313131"/>
</svg>
